<?xml version="1.0" encoding="UTF-8" standalone="no"?>
<!DOCTYPE svg PUBLIC "-//W3C//DTD SVG 1.1//EN"
 "http://www.w3.org/Graphics/SVG/1.1/DTD/svg11.dtd">
<!-- Generated by graphviz version 5.0.0 (0)
 -->
<!-- Title: G Pages: 1 -->
<svg width="887pt" height="99pt"
 viewBox="0.00 0.00 886.65 99.00" xmlns="http://www.w3.org/2000/svg" xmlns:xlink="http://www.w3.org/1999/xlink">
<g id="graph0" class="graph" transform="scale(1 1) rotate(0) translate(4 95)">
<title>G</title>
<polygon fill="white" stroke="transparent" points="-4,4 -4,-95 882.65,-95 882.65,4 -4,4"/>
<g id="clust1" class="cluster">
<title>cluster_region1</title>
<polygon fill="none" stroke="black" points="8,-8 8,-83 238.29,-83 238.29,-8 8,-8"/>
<text text-anchor="middle" x="123.14" y="-67.8" font-family="Times,serif" font-size="14.00">Region 1</text>
</g>
<g id="clust2" class="cluster">
<title>cluster_region2</title>
<polygon fill="none" stroke="black" points="463.78,-8 463.78,-83 552.57,-83 552.57,-8 463.78,-8"/>
<text text-anchor="middle" x="508.17" y="-67.8" font-family="Times,serif" font-size="14.00">Region 2</text>
</g>
<g id="clust3" class="cluster">
<title>cluster_region3</title>
<polygon fill="none" stroke="black" points="593.57,-8 593.57,-83 870.65,-83 870.65,-8 593.57,-8"/>
<text text-anchor="middle" x="732.11" y="-67.8" font-family="Times,serif" font-size="14.00">Region 3</text>
</g>
<!-- user_1 -->
<g id="node1" class="node">
<title>user_1</title>
<ellipse fill="none" stroke="black" cx="58.25" cy="-34" rx="42.49" ry="18"/>
<text text-anchor="middle" x="58.25" y="-30.3" font-family="Times,serif" font-size="14.00">User 1</text>
</g>
<!-- igate_1 -->
<g id="node2" class="node">
<title>igate_1</title>
<ellipse fill="none" stroke="black" cx="193.89" cy="-34" rx="36.29" ry="18"/>
<text text-anchor="middle" x="193.89" y="-30.3" font-family="Times,serif" font-size="14.00">IGate</text>
</g>
<!-- user_1&#45;&gt;igate_1 -->
<g id="edge1" class="edge">
<title>user_1&#45;&gt;igate_1</title>
<path fill="none" stroke="black" d="M100.8,-34C115.49,-34 132.1,-34 147.12,-34"/>
<polygon fill="black" stroke="black" points="147.22,-37.5 157.22,-34 147.22,-30.5 147.22,-37.5"/>
<text text-anchor="middle" x="128.99" y="-37.8" font-family="Times,serif" font-size="14.00">RF</text>
</g>
<!-- internet -->
<g id="node3" class="node">
<title>internet</title>
<ellipse fill="none" stroke="black" cx="351.03" cy="-34" rx="48.99" ry="18"/>
<text text-anchor="middle" x="351.03" y="-30.3" font-family="Times,serif" font-size="14.00">Internet</text>
</g>
<!-- igate_1&#45;&gt;internet -->
<g id="edge2" class="edge">
<title>igate_1&#45;&gt;internet</title>
<path fill="none" stroke="black" d="M230.48,-34C248.7,-34 271.33,-34 291.99,-34"/>
<polygon fill="black" stroke="black" points="292.26,-37.5 302.26,-34 292.26,-30.5 292.26,-37.5"/>
<text text-anchor="middle" x="266.29" y="-37.8" font-family="Times,serif" font-size="14.00">WAN</text>
</g>
<!-- igate_2 -->
<g id="node4" class="node">
<title>igate_2</title>
<ellipse fill="none" stroke="black" cx="508.17" cy="-34" rx="36.29" ry="18"/>
<text text-anchor="middle" x="508.17" y="-30.3" font-family="Times,serif" font-size="14.00">IGate</text>
</g>
<!-- internet&#45;&gt;igate_2 -->
<g id="edge3" class="edge">
<title>internet&#45;&gt;igate_2</title>
<path fill="none" stroke="black" d="M399.85,-34C419.47,-34 442.08,-34 461.48,-34"/>
<polygon fill="black" stroke="black" points="461.59,-37.5 471.59,-34 461.59,-30.5 461.59,-37.5"/>
<text text-anchor="middle" x="435.78" y="-37.8" font-family="Times,serif" font-size="14.00">WAN</text>
</g>
<!-- digi -->
<g id="node5" class="node">
<title>digi</title>
<ellipse fill="none" stroke="black" cx="661.37" cy="-34" rx="59.59" ry="18"/>
<text text-anchor="middle" x="661.37" y="-30.3" font-family="Times,serif" font-size="14.00">Digipeater</text>
</g>
<!-- igate_2&#45;&gt;digi -->
<g id="edge4" class="edge">
<title>igate_2&#45;&gt;digi</title>
<path fill="none" stroke="black" d="M544.62,-34C558.64,-34 575.26,-34 591.47,-34"/>
<polygon fill="black" stroke="black" points="591.48,-37.5 601.48,-34 591.48,-30.5 591.48,-37.5"/>
<text text-anchor="middle" x="573.07" y="-37.8" font-family="Times,serif" font-size="14.00">RF</text>
</g>
<!-- user_2 -->
<g id="node6" class="node">
<title>user_2</title>
<ellipse fill="none" stroke="black" cx="820.41" cy="-34" rx="42.49" ry="18"/>
<text text-anchor="middle" x="820.41" y="-30.3" font-family="Times,serif" font-size="14.00">User 2</text>
</g>
<!-- digi&#45;&gt;user_2 -->
<g id="edge5" class="edge">
<title>digi&#45;&gt;user_2</title>
<path fill="none" stroke="black" d="M721.29,-34C736.56,-34 752.89,-34 767.76,-34"/>
<polygon fill="black" stroke="black" points="767.79,-37.5 777.79,-34 767.79,-30.5 767.79,-37.5"/>
<text text-anchor="middle" x="749.66" y="-37.8" font-family="Times,serif" font-size="14.00">RF</text>
</g>
</g>
</svg>
